Coordinates
version=1
nRows=7
nColumns=40
inDegrees=yes

Units are S.I. units (second, meters, Newtons, ...)
Angles are in degrees.

endheader
time	pelvis_tilt	pelvis_list	pelvis_rotation	pelvis_tx	pelvis_ty	pelvis_tz	hip_flexion_r	hip_adduction_r	hip_rotation_r	knee_angle_r	knee_angle_r_beta	ankle_angle_r	subtalar_angle_r	mtp_angle_r	hip_flexion_l	hip_adduction_l	hip_rotation_l	knee_angle_l	knee_angle_l_beta	ankle_angle_l	subtalar_angle_l	mtp_angle_l	lumbar_extension	lumbar_bending	lumbar_rotation	arm_flex_r	arm_add_r	arm_rot_r	elbow_flex_r	pro_sup_r	wrist_flex_r	wrist_dev_r	arm_flex_l	arm_add_l	arm_rot_l	elbow_flex_l	pro_sup_l	wrist_flex_l	wrist_dev_l
     48.16000000	     -2.56867595	     -2.49808696	     -1.71888242	      0.96603769	      0.93791309	      0.40946040	     35.94190714	     -4.52139518	     -4.77321219	     61.68696625	     61.68696625	     -0.45726010	    -17.28983422	      4.67767754	      8.13964587	     -1.53330559	    -11.44574713	     14.69102872	     14.69102872	     11.28996940	    -11.74821025	     -3.62844218	     -9.74948167	      5.57427728	      2.55267331	     -6.36714043	    -12.34759894	     -9.93446729	     20.25927321	     47.12772717	      0.00000000	      0.00000000	     25.10924618	    -13.78005882	     -1.87122362	     46.62317348	     46.78577413	      0.00000000	      0.00000000
     48.17200000	     -2.67868478	     -2.56995370	     -1.75186863	      0.96564136	      0.93772405	      0.40907243	     36.05409214	     -4.49137122	     -5.22357776	     58.28639007	     58.28639007	     -0.48259776	    -17.18664955	      4.00814218	      7.57954802	     -1.55884962	    -11.59623802	     14.31499972	     14.31499972	     11.42981902	    -11.40927990	     -4.15281303	     -9.79038002	      5.78146663	      1.94712476	     -7.55297194	    -12.41085598	    -11.01448066	     19.51395323	     47.28694945	      0.00000000	      0.00000000	     24.93180537	    -14.43945661	     -3.09514611	     50.39021499	     46.92527386	      0.00000000	      0.00000000
     48.18400000	     -2.88028893	     -2.64720160	     -1.76256592	      0.96517419	      0.93736604	      0.40881935	     36.11820049	     -4.40322508	     -5.67818682	     54.58847124	     54.58847124	     -0.18219294	    -16.79548694	      4.25831056	      7.14170826	     -1.57875630	    -11.56695692	     13.96850252	     13.96850252	     11.66809718	    -11.25782683	     -4.23510526	     -9.69387022	      5.99442943	      1.77855528	     -9.02083878	    -12.53735362	    -11.12745625	     18.92841434	     47.31207892	      0.00000000	      0.00000000	     25.95666454	    -14.80877016	     -3.34573066	     51.26536319	     46.96717184	      0.00000000	      0.00000000
     48.19600000	     -2.85782072	     -2.69508364	     -1.88496797	      0.96493019	      0.93728238	      0.40881947	     35.70853575	     -4.23100236	     -6.03345932	     50.47950866	     50.47950866	     -0.06122866	    -16.24017596	      3.85243704	      6.36450288	     -1.58836969	    -11.83252197	     13.50087357	     13.50087357	     11.87812353	    -10.83939206	     -4.42277215	     -9.94061109	      6.13025012	      2.30005989	    -10.82338787	    -12.60799202	    -11.47696318	     18.59645957	     47.35048094	      0.00000000	      0.00000000	     26.85270268	    -14.63948443	     -3.80275963	     53.61070853	     47.04183499	      0.00000000	      0.00000000
     48.20800000	     -3.05218933	     -2.75690607	     -1.94379521	      0.96465615	      0.93678326	      0.40893818	     35.28858009	     -4.04594535	     -6.54429561	     45.96377216	     45.96377216	     -0.38038594	    -15.49671346	      2.12681424	      5.89110409	     -1.65535209	    -12.11119300	     13.14780434	     13.14780434	     12.11595725	    -10.25382103	     -4.80391598	     -9.93111150	      6.25345195	      2.24206435	    -12.53133545	    -12.65025277	    -12.30841518	     19.31739777	     47.39221865	      0.00000000	      0.00000000	     26.93803256	    -14.87695355	     -4.55211645	     56.83577368	     47.14386878	      0.00000000	      0.00000000
     48.22000000	     -3.20189854	     -2.89296332	     -1.97587215	      0.96443304	      0.93630644	      0.40920794	     34.64795614	     -3.72131882	     -7.09747356	     41.27732130	     41.27732130	     -0.15987818	    -14.20984964	      2.11823293	      5.45352687	     -1.79160314	    -12.12766824	     12.95863570	     12.95863570	     12.36827270	    -10.16092594	     -4.93847252	     -9.93960304	      6.48495948	      2.13526774	    -13.71443773	    -12.78564055	    -12.51020778	     19.13651682	     47.40910724	      0.00000000	      0.00000000	     27.65620651	    -15.19906186	     -4.80362519	     57.87392023	     47.18452041	      0.00000000	      0.00000000
     48.23200000	     -3.36609364	     -2.92473505	     -2.06386221	      0.96443880	      0.93566081	      0.40972931	     33.79745636	     -3.45034403	     -7.68808654	     36.32571805	     36.32571805	     -0.58141579	    -12.61490608	      0.30279729	      4.95680984	     -1.86172592	    -12.48934802	     12.67944849	     12.67944849	     12.67410274	     -9.55327230	     -5.22773264	     -9.97348556	      6.52833297	      2.11305069	    -15.24412002	    -12.72824732	    -13.37444305	     20.22297607	     47.42324227	      0.00000000	      0.00000000	     27.65358639	    -15.47941953	     -5.45043813	     61.06807185	     47.28114317	      0.00000000	      0.00000000
